<svg xmlns="http://www.w3.org/2000/svg" viewBox="0 0 82 74"><defs><style>.cls-1{fill:#cd39f5;}.cls-2{fill:#4f1cdf;}.cls-3{fill:#fff;}</style></defs><g id="Camada_2" data-name="Camada 2"><g id="Camada_16" data-name="Camada 16"><rect class="cls-1" x="13" y="12" width="69" height="62" rx="12.04"/><rect class="cls-2" x="1.5" y="1.5" width="66" height="59" rx="10.54"/><path class="cls-3" d="M57,3a9.06,9.06,0,0,1,9,9V50a9.06,9.06,0,0,1-9,9H12a9.06,9.06,0,0,1-9-9V12a9.06,9.06,0,0,1,9-9H57m0-3H12A12,12,0,0,0,0,12V50A12,12,0,0,0,12,62H57A12,12,0,0,0,69,50V12A12,12,0,0,0,57,0Z"/></g></g></svg>